<svg id="logo" xmlns="http://www.w3.org/2000/svg" width="483.276" height="81.77" viewBox="0 0 483.276 81.77">
  <g id="Group_5" data-name="Group 5">
    <g id="Group_4" data-name="Group 4" transform="translate(32.946 0.314)">
      <path id="Path_13" data-name="Path 13" d="M287.051,326.69l.072.073c-9.979-10.106-9.688-42.136.292-52.243h0c9.979,10.107,9.979,42.432,0,52.538Z" transform="translate(-279.783 -274.521)" fill="#8da71c"/>
      <path id="Path_14" data-name="Path 14" d="M287.85,328.992v.1c0-14.1,12.315-27.179,26.415-27.179h0c0,14.1-12.315,27.59-26.415,27.59Z" transform="translate(-280.454 -276.798)" fill="#638d21"/>
    </g>
    <path id="Path_15" data-name="Path 15" d="M288.237,274.187c.782,1.355,1.561,2.712,2.3,4.091a36.527,36.527,0,0,1,18.6,9.246l-2.125,2.125a1.866,1.866,0,1,0,2.64,2.639l2.09-2.089a37.284,37.284,0,0,1,9.3,22.9h-2.774a1.867,1.867,0,1,0,0,3.734h2.775a37.355,37.355,0,0,1-9.294,22.91l-2.1-2.1a1.867,1.867,0,0,0-2.64,2.64l2.139,2.138a36.374,36.374,0,0,1-22.947,9.748V348.9a1.867,1.867,0,0,0-3.734,0v3.268a36.374,36.374,0,0,1-22.947-9.748l2.138-2.138a1.866,1.866,0,1,0-2.639-2.64l-2.1,2.1a37.356,37.356,0,0,1-9.294-22.91h2.775a1.867,1.867,0,1,0,0-3.734h-2.774a37.284,37.284,0,0,1,9.3-22.9l2.09,2.09a1.867,1.867,0,1,0,2.64-2.641l-2.125-2.125a36.52,36.52,0,0,1,18.513-9.229,21.313,21.313,0,0,1,2.5-4.116,40.838,40.838,0,0,0-36.705,40.786c0,22.6,18.164,40.983,40.49,40.983s40.49-18.386,40.49-40.983A40.841,40.841,0,0,0,288.237,274.187Z" transform="translate(-243.851 -274.178)" fill="#7c348a"/>
  </g>
  <g id="Group_6" data-name="Group 6" transform="translate(99.924 0.405)">
    <path id="Path_16" data-name="Path 16" d="M362.167,333.054v1.687c0,6.987-.028,13.973.028,20.96.009,1.16-.348,1.451-1.451,1.412-2.259-.079-4.523-.052-6.784-.01-.837.016-1.108-.275-1.106-1.106.031-13.505-.124-27.013.11-40.514.149-8.7,3.848-15.74,11.828-19.79,12.151-6.167,30.265-1.444,33.159,16.638A25.534,25.534,0,0,1,394,331.253c-7.2,10.664-23.227,11.722-31.184,2.42C362.712,333.546,362.579,333.442,362.167,333.054Zm13.4-30.517c-7.811-.014-13.383,5.808-13.391,13.99-.008,8.026,5.748,14.076,13.395,14.08,7.678,0,13.438-6.014,13.437-14.038C389.007,308.524,383.285,302.551,375.566,302.537Z" transform="translate(-352.832 -276.158)" fill="#638d21"/>
    <path id="Path_17" data-name="Path 17" d="M726.531,274.622h9.063V297.6c.591-.52.913-.821,1.254-1.1,6.431-5.245,13.667-6.312,21.239-3.313,8.993,3.561,9.167,13.358,5.218,19.264-2.343,3.5-5.738,5.632-9.589,7.132-.4.155-.795.306-1.188.47-.064.027-.1.11-.244.267,6.523,4.267,11.009,10.3,14.956,17.075-.5.05-.845.115-1.194.116-2.645.008-5.292-.036-7.936.027a2.163,2.163,0,0,1-2.006-1.018c-2.821-3.862-5.807-7.575-9.717-10.434a28.341,28.341,0,0,0-9.719-4.4,6.524,6.524,0,0,0-1.023-.082v15.816h-9.114Zm9.228,38.675a1.362,1.362,0,0,0,.341.139,34.1,34.1,0,0,0,11.926-.666c2.668-.64,5.247-1.58,7.129-3.726,2.761-3.149,1.656-7.108-2.4-8.137C744.867,298.9,736.707,304.035,735.759,313.3Z" transform="translate(-383.888 -274.62)" fill="#638d21"/>
    <path id="Path_18" data-name="Path 18" d="M654.878,338.988h-9.306v-6.111a4.633,4.633,0,0,0-.634.469c-8.608,9.969-23.207,8.1-30.606-1.532-6.876-8.953-6.567-23.108.9-31.364,5.232-5.784,11.966-7.941,19.545-7.093,10.3,1.154,17.025,7.24,19.442,17.2a24.927,24.927,0,0,1,.689,5.562c.08,7.286.038,14.572.037,21.859C654.948,338.271,654.909,338.561,654.878,338.988Zm-9.354-22.3c.029-10.356-8.361-16.243-17.626-13.452-5.5,1.656-8.062,5.917-8.918,11.381-1.007,6.424,2.673,13.02,8.511,15.177C636.506,333.129,645.485,326.6,645.523,316.69Z" transform="translate(-374.154 -276.162)" fill="#638d21"/>
    <path id="Path_19" data-name="Path 19" d="M478.7,338.983h-9.29v-6.051a2.921,2.921,0,0,0-.568.342c-8.75,10.234-23.855,8.149-31.128-2.093-6.887-9.7-5.736-24.194,2.707-32.093a21.771,21.771,0,0,1,18.312-5.714c10.841,1.361,17.53,7.829,19.614,18.526a23.383,23.383,0,0,1,.39,4.315c.04,7.24.022,14.48.022,21.719C478.755,338.228,478.723,338.523,478.7,338.983ZM469.279,316.6a16.58,16.58,0,0,0-.008-1.786c-1.329-12.264-13.426-14.553-20.293-10.366-4.587,2.8-7.012,8.662-6.079,14.58,1.329,8.427,8.978,13.369,17.054,11.018C465.623,328.4,469.322,323.1,469.279,316.6Z" transform="translate(-359.513 -276.161)" fill="#638d21"/>
    <path id="Path_20" data-name="Path 20" d="M711.964,311.856H702.3a11.747,11.747,0,0,0-4.01-6.4,13.8,13.8,0,0,0-14.15-1.826c-4.8,1.916-7.384,5.763-8.02,10.841-.69,5.508.84,10.254,5.423,13.643,6.141,4.54,15.634,2.774,19.36-3.516.493-.833.759-1.8,1.184-2.675.143-.3.447-.73.683-.734,3.02-.049,6.04-.033,9.183-.033a19.915,19.915,0,0,1-2.8,8.258c-4.018,6.591-10.1,9.883-17.632,10.489-11.422.919-21.1-5.433-23.927-16.176-2.579-9.794-.71-18.645,7.26-25.509,4.694-4.042,10.388-5.407,16.477-4.955,7.654.569,13.8,3.845,17.846,10.548A20.877,20.877,0,0,1,711.964,311.856Z" transform="translate(-378.901 -276.163)" fill="#638d21"/>
    <path id="Path_21" data-name="Path 21" d="M501.055,338.981h-9.17c-.037-.393-.094-.722-.094-1.049,0-7.328-.08-14.656.029-21.982.1-6.591,2.2-12.463,7.006-17.157,9.764-9.538,25.956-6.583,32.157,5.834a25.9,25.9,0,0,1,2.685,11.712q.015,10.8.007,21.6c0,.332-.059.665-.093,1.033h-9.249V337.4c0-6.816.108-13.635-.061-20.447a22.951,22.951,0,0,0-1.3-7.09,10.737,10.737,0,0,0-10.244-7.32,11.206,11.206,0,0,0-10.413,7.354,18.911,18.911,0,0,0-1.264,7.245q-.007,10.1,0,20.192Z" transform="translate(-364.378 -276.16)" fill="#638d21"/>
    <path id="Path_22" data-name="Path 22" d="M565.419,339c-11.03.338-20.24-5.233-20.5-17.317-.271-12.774-.075-25.558-.081-38.337,0-.169.032-.336.06-.62h9.185v10.423h11.262v9.417H554.386c-.121.248-.19.324-.189.4.048,6.471-.04,12.948.207,19.411.15,3.886,3.173,6.792,7.209,7.542.96.178,1.955.169,2.91.361.335.068.85.476.856.739C565.444,333.651,565.419,336.288,565.419,339Z" transform="translate(-368.784 -275.294)" fill="#638d21"/>
    <path id="Path_23" data-name="Path 23" d="M412.906,274.62h9.011v62.8h-9.011Z" transform="translate(-357.825 -274.62)" fill="#638d21"/>
    <path id="Path_24" data-name="Path 24" d="M601.131,293.139v9.29c-1.516.179-3.006.26-4.455.542-7.1,1.386-10.926,5.885-11.011,13.086-.084,7.114-.028,14.229-.032,21.344,0,.5,0,.995,0,1.572h-9.189c-.03-.436-.084-.844-.084-1.252q-.007-10.543,0-21.088c-.008-5.887,1.373-11.319,5.339-15.849,3.874-4.426,8.969-6.5,14.671-7.267C597.911,293.309,599.479,293.266,601.131,293.139Z" transform="translate(-371.408 -276.159)" fill="#638d21"/>
  </g>
</svg>
