<svg xmlns="http://www.w3.org/2000/svg" width="24.822" height="24.823" viewBox="0 0 24.822 24.823">
  <g id="moisture_icon" data-name="moisture icon" transform="translate(0)">
    <g id="Group_14" data-name="Group 14" transform="translate(0 0)">
      <ellipse id="Ellipse_2" data-name="Ellipse 2" cx="11.979" cy="11.979" rx="11.979" ry="11.979" transform="translate(0.433 0.433)" fill="#638d21"/>
      <path id="Path_35" data-name="Path 35" d="M567.824,64.835a12.411,12.411,0,1,1,12.411-12.411A12.425,12.425,0,0,1,567.824,64.835Zm0-23.958a11.546,11.546,0,1,0,11.545,11.546A11.559,11.559,0,0,0,567.824,40.877Z" transform="translate(-555.412 -40.012)" fill="#fff"/>
    </g>
    <g id="Group_16" data-name="Group 16" transform="translate(7.453 6.15)">
      <g id="Group_15" data-name="Group 15">
        <path id="Path_36" data-name="Path 36" d="M576.644,54.641c-2.044,2.277-6.448,8-2.26,11.077a5.422,5.422,0,0,0,6.369,0c4.188-3.077-.216-8.8-2.26-11.077A1.243,1.243,0,0,0,576.644,54.641Zm3.993,9.466a3.849,3.849,0,0,1-2.881,1.349h-.026a.326.326,0,0,1-.026-.651,3.239,3.239,0,0,0,2.414-1.1,3.328,3.328,0,0,0,.562-2.335.326.326,0,0,1,.643-.108A3.934,3.934,0,0,1,580.637,64.107Z" transform="translate(-572.639 -54.228)" fill="#fff"/>
      </g>
    </g>
  </g>
</svg>
