<svg xmlns="http://www.w3.org/2000/svg" width="24.436" height="24.436" viewBox="0 0 24.436 24.436">
  <g id="temp_icon" data-name="temp icon" transform="translate(0 0)">
    <g id="Group_17" data-name="Group 17" transform="translate(0 0)">
      <ellipse id="Ellipse_3" data-name="Ellipse 3" cx="11.792" cy="11.792" rx="11.792" ry="11.792" transform="translate(0.426 0.426)" fill="#638d21"/>
      <path id="Path_37" data-name="Path 37" d="M486.609,64.448A12.218,12.218,0,1,1,498.827,52.23,12.232,12.232,0,0,1,486.609,64.448Zm0-23.584A11.366,11.366,0,1,0,497.975,52.23,11.379,11.379,0,0,0,486.609,40.864Z" transform="translate(-474.391 -40.012)" fill="#fff"/>
    </g>
    <g id="Group_18" data-name="Group 18" transform="translate(8.103 4.676)">
      <path id="Path_38" data-name="Path 38" d="M497.515,50.992a5.655,5.655,0,0,1,.893.278,2.546,2.546,0,0,1,1.485,2.241c.032.509.009,1.021.009,1.532q0,2.152,0,4.3a.323.323,0,0,0,.1.246,3.825,3.825,0,1,1-5.917.511,4.4,4.4,0,0,1,.42-.511.334.334,0,0,0,.1-.246c0-1.886-.012-3.772,0-5.658a2.569,2.569,0,0,1,1.583-2.462,5.246,5.246,0,0,1,.8-.233Zm1.208,5.759c0-1,0-2,0-3a2.124,2.124,0,0,0-.09-.591,1.469,1.469,0,0,0-2.852.549q0,3.071,0,6.142a.342.342,0,0,1-.138.3,2.6,2.6,0,0,0-.951,2.783,2.647,2.647,0,0,0,5.2-.524,2.609,2.609,0,0,0-1.028-2.251.362.362,0,0,1-.147-.321C498.725,58.8,498.723,57.777,498.723,56.751Z" transform="translate(-493.419 -50.992)" fill="#fff"/>
      <rect id="Rectangle_4" data-name="Rectangle 4" width="1.164" height="1.166" rx="0.582" transform="translate(7.379 1.1)" fill="#fff"/>
      <rect id="Rectangle_5" data-name="Rectangle 5" width="1.164" height="1.166" rx="0.582" transform="translate(7.379 3.163)" fill="#fff"/>
      <rect id="Rectangle_6" data-name="Rectangle 6" width="1.173" height="1.157" rx="0.579" transform="translate(7.376 5.258)" fill="#fff"/>
      <rect id="Rectangle_7" data-name="Rectangle 7" width="1.169" height="1.16" rx="0.58" transform="translate(7.379 7.319)" fill="#fff"/>
      <path id="Path_39" data-name="Path 39" d="M500.625,59.844c0,1.124,0,2.249,0,3.373a.188.188,0,0,0,.133.206,1.764,1.764,0,1,1-1.439,0,.188.188,0,0,0,.133-.205q-.005-3.351,0-6.7a.654.654,0,0,1,.19-.522.561.561,0,0,1,.6-.122.569.569,0,0,1,.384.5,1.425,1.425,0,0,1,0,.176Q500.625,58.195,500.625,59.844Zm-.6,5.774a.588.588,0,1,0-.583-.6A.592.592,0,0,0,500.029,65.617Z" transform="translate(-496.204 -53.771)" fill="#fff"/>
    </g>
  </g>
</svg>
